{
  "scene": 0,
  "scenes": [
    {
      "nodes": [0]
    }
  ],
  "nodes": [
    {
      "mesh": 0,
      "translation": [0, 0, 0],
      "rotation": [0, 0, 0, 1],
      "scale": [1, 1, 1]
    }
  ],
  "meshes": [
    {
      "primitives": [
        {
          "attributes": {
            "POSITION": 0,
            "NORMAL": 1,
            "TEXCOORD_0": 2
          },
          "indices": 3,
          "material": 0
        }
      ]
    }
  ],
  "materials": [
    {
      "pbrMetallicRoughness": {
        "baseColorFactor": [0.5, 0.5, 1.0, 1.0],
        "metallicFactor": 0.0,
        "roughnessFactor": 0.6
      },
      "name": "TShirtMaterial"
    }
  ],
  "accessors": [
    {
      "bufferView": 0,
      "componentType": 5126,
      "count": 8,
      "type": "VEC3",
      "max": [1, 1, 1],
      "min": [-1, -1, -1]
    },
    {
      "bufferView": 1,
      "componentType": 5126,
      "count": 8,
      "type": "VEC3"
    },
    {
      "bufferView": 2,
      "componentType": 5126,
      "count": 8,
      "type": "VEC2"
    },
    {
      "bufferView": 3,
      "componentType": 5123,
      "count": 36,
      "type": "SCALAR"
    }
  ],
  "bufferViews": [
    {
      "buffer": 0,
      "byteOffset": 0,
      "byteLength": 96
    },
    {
      "buffer": 0,
      "byteOffset": 96,
      "byteLength": 96
    },
    {
      "buffer": 0,
      "byteOffset": 192,
      "byteLength": 64
    },
    {
      "buffer": 0,
      "byteOffset": 256,
      "byteLength": 72
    }
  ],
  "buffers": [
    {
      "byteLength": 328,
      "uri": "data:application/octet-stream;base64,_FOR_BINARY_DATA"
    }
  ]
}
